<svg version="1.1" id="Layer_1" xmlns="http://www.w3.org/2000/svg" x="0px" y="0px"
     width="192.012px" height="141.358px" viewBox="0 0 192.012 141.358" enable-background="new 0 0 192.012 141.358"
     xml:space="preserve">
<path fill-rule="evenodd" clip-rule="evenodd" d="M131.727,138.485c2.096-1.368,3.699-3.014,5.618-3.563
	c7.754-2.224,10.563-8.964,13.405-15.13c5.371-11.656,4.386-23.944,2.107-35.542c-12.098,2.118-23.947,4.452-35.886,6.172
	c-5.896,0.85-11.954,0.731-17.938,0.732c-3.353,0-4.113,1.285-4.155,4.492c-0.15,11.46,3.94,21.784,8.175,32.056
	c2.194,5.32-1.074,8.777-3.985,11.886c-2.629,2.806-6.312,1.871-9.608-0.002c0.21-0.699,0.2-1.38,0.508-1.586
	c7.393-4.961,5.475-11.39,3.131-18.103c-2.61-7.473-4.812-15.087-7.325-22.596c-0.548-1.637-1.662-3.085-2.619-4.808
	c-5.857,8.512-5.014,18.337-7.197,27.384c-1.24,5.138-2.463,10.324-4.308,15.259c-2.348,6.28-7.262,7.639-13.724,4.271
	c2.63-3.877,5.133-7.839,7.909-11.599c5.362-7.261,4.484-15.643,4.327-23.82c-0.089-4.604,0.399-10.215-1.973-13.487
	c-2.183-3.013-7.908-3.361-11.962-5.135c-7.044-3.082-11.925-8.559-15.058-15.363c-3.881-8.432-7.478-17.02-10.707-25.723
	c-2.802-7.555-4.329-8.935-12.363-8.134c-2.642,0.263-5.263,0.806-7.869,1.338c-3.753,0.767-6.913,0.213-9.08-3.361
	c-2.219-3.662-0.977-6.703,1.59-9.466c2.375-2.557,4.948-4.93,7.33-7.48c2.032-2.176,4.714-4.19,5.698-6.807
	c1.933-5.143,5.952-6.827,10.501-8.179c0.794-0.236,1.735-0.141,2.431-0.522c5.738-3.149,8.308-1.812,13.067,3.764
	c7.443,8.719,17.165,17.114,29.331,18.681c9.745,1.254,19.886,0.161,29.786-0.674c18.203-1.536,36.331-4.025,54.545-5.392
	c13.012-0.977,24.525,3.25,32.189,14.367c2.466,3.578,3.052,8.481,4.314,12.832c0.238,0.824-0.09,2.465-0.667,2.772
	c-4.873,2.599-2.72,7.123-3.403,10.946c-0.811,4.529-1.955,9.108-3.752,13.326c-3.613,8.484-4.043,16.439,2.306,23.779
	c2.188,2.528,1.347,4.609,0.614,7.554c-1.771,7.135-3.002,14.522-3.334,21.859c-0.291,6.463-8.017,15.827-13.889,15.122
	c-1.025-0.124-2.461-0.685-2.805-1.449c-0.283-0.632,0.538-2.091,1.252-2.795c12.286-12.11,11.652-32.456-1.531-43.572
	c-0.265,0.377-0.762,0.755-0.742,1.104c0.814,14.211-6.36,25.871-12.906,37.38c-3.82,6.717-12.791,11.864-19.238,8.735
	C133.274,139.734,132.803,139.27,131.727,138.485z"/>
</svg>
