<svg version="1.1" id="Layer_1" xmlns="http://www.w3.org/2000/svg" xmlns:xlink="http://www.w3.org/1999/xlink" x="0px" y="0px"
     width="486px" height="354px" viewBox="0 0 486 354" enable-background="new 0 0 486 354" xml:space="preserve">
<path fill="#444444" d="M0,12C0,5.373,5.373,0,12,0h462c6.627,0,12,5.373,12,12v30c0,6.627-5.373,12-12,12H12
	C5.373,54,0,48.627,0,42V12z"/>
    <path fill="#444444" d="M0,162c0-6.627,5.373-12,12-12h462c6.627,0,12,5.373,12,12v30c0,6.627-5.373,12-12,12H12
	c-6.627,0-12-5.373-12-12V162z"/>
    <path fill="#444444" d="M0,312c0-6.627,5.373-12,12-12h462c6.627,0,12,5.373,12,12v30c0,6.627-5.373,12-12,12H12
	c-6.627,0-12-5.373-12-12V312z"/>
</svg>
