<svg version="1.1" id="Layer_1" xmlns="http://www.w3.org/2000/svg" xmlns:xlink="http://www.w3.org/1999/xlink" x="0px" y="0px"
     width="103.132px" height="114.189px" viewBox="0 0 103.132 114.189" enable-background="new 0 0 103.132 114.189"
     xml:space="preserve">
<path d="M101.453,40.476c1.5-0.321,1.68-1.929,1.68-1.929c-2.18,0.464-2.965-1.464-2.965-1.464
	c-0.285-0.572,0.857-0.644,0.857-0.644c-0.929-1.464-2.75-1.714-2.75-1.714c0.5-1.107,2.357-0.071,2.357-0.071
	c-1.25-3.357-4.93-4.036-4.93-4.036c-1.25-4.214-7.464-4.214-7.464-4.214c1.786,0.321,3.857,3.179,3.857,3.179
	c-3.607-2.25-8.714-0.75-8.714-0.75c2,0.106,4.32,1.606,4.32,1.606c-2.285-1.214-6.428,0.607-6.428,0.607
	c4.714-1.107,5.214,2.321,5.214,2.321c0.644,2.143-3.786,3.071-3.786,3.071c-2.928-2.214-11.964-1.143-11.964-1.143
	c-2.679-0.393-7.286,0.393-7.286,0.393c-2.356-0.643-4.82-0.321-4.82-0.321c-2.286-1.071-7.644,0.179-7.644,0.179
	c-3.75-0.893-8.107,0.179-8.107,0.179c-3-0.75-4.893-0.071-4.893-0.071c-2.286-0.179-4.464,0.5-4.464,0.5
	c-0.357-1.357-2.571-2.394-2.571-2.394c0.679-2.643-1.107-7-1.107-7c0.571-1.893-0.464-3.321-0.464-3.321
	c0.393-1.5-0.964-3.214-0.964-3.214c0.286-1.536-1-2.179-1-2.179c0.464-1.357-0.536-1.821-0.536-1.821
	c-0.036-1.75-0.893-2.179-0.893-2.179c-0.036-1.75-1.643-3.75-1.643-3.75c-0.607-1.821-3.786-3.321-3.786-3.321
	c-1-1.715-2.964-1.715-2.964-1.715c-1.072-0.821-3-0.285-3-0.285l-1.429-1.679c-3.286-4.536-4.5-3.071-4.5-3.071
	c-0.464,0.893,0.179,1.75,0.179,1.75l2.857,3.893c-3.25,1.536-4.143,4.286-4.143,4.286l-5.643,3.821
	c-3.393,2.179-1.25,3.643-1.25,3.643c-1.607,1.786,0.643,2.536,0.643,2.536c1.214,2.071,3.143,0.606,3.143,0.606
	c1.429-0.75,2.714,0.072,2.714,0.072c0.857,0.856,3.5,1.428,3.5,1.428c-1.286,1.894-0.679,6.036-0.679,6.036
	c0.321-0.964,1.393-1.536,1.393-1.536c-1.464,2.107-3.286,9.465-3.286,9.465c0.321-1.393,2.893-2.679,2.893-2.679
	c-2,2.607-3.679,9.393-3.679,9.393c0.857-1.535,2.464-1.893,2.464-1.893c-2.286,3.429-2.214,8.571-2.214,8.571
	c0-0.964,1.929-2.535,1.929-2.535c-1.214,3.428-1,9.964-1,9.964c0-1.643,2.607-4,2.607-4c-0.857,2.679,0.536,7.107,0.536,7.107
	c-0.143-1.643,1.678-3.75,1.678-3.75c-0.536,2.535,0.143,5.321,0.143,5.321c-0.071-2.214,1.679-2.5,1.679-2.5
	c0.071,3.107-0.857,4.964-0.857,4.964c1.822,0.25,3.536-2.535,3.536-2.535c0.393,1.715-1.071,4.5-1.071,4.5
	c1.143,0.25,2.607-0.965,2.607-0.965c0.464,2.107-0.107,2.965-0.107,2.965c1.214-0.321,1.786-2.75,1.786-2.75l2,1.393
	c1,1.715-0.143,3.357-0.143,3.357c1.143,1.321,3.357-0.071,3.357-0.071c0.929,1.786,0.464,3.429,0.464,3.429
	c1.536,0.643,4.429-0.822,4.429-0.822c-0.464,2.286,0.464,5.572,0.464,5.572c0.75-1.893,1.678-1.893,1.678-1.893
	c-0.643,2.57,1.143,6.678,1.143,6.678c0.571,1.286,0.75,4.357,0.75,4.357c-0.75,3.321,0.821,6.25,0.821,6.25
	c0.679,3.429,0.429,10.857,0.429,10.857c-0.036,2.393-0.857,2.535-0.857,2.535c-4.464,0.857-3.107,1.679-3.107,1.679
	c-2.964,1.75,3,2.214,3,2.214c5.25-0.035,3.75-1.893,3.75-1.893c-0.429-1.107,0.179-1.928,0.179-1.928
	c0.928-0.894,1.036-2.394,1.036-2.394c5.393,0.25,4.143-2.464,4.143-2.464c0.857-2.107-0.464-13.322-0.464-13.322
	c0.321-1.214,0.071-2.928,0.071-2.928c1.929-10.857,0.714-16.822,0.714-16.822c0.857,0.357,2.178,0.357,2.178,0.357
	c0.929,4.857,4.25,7.607,4.25,7.607c0.822,0.179,1.715-0.607,1.715-0.607c-0.107,1.036-0.822,2.072-0.822,2.072
	c2.43,0,5.394-2.68,5.394-2.68c-0.286,1.715-1.214,2.322-1.214,2.322c5.893-1.75,7.32-6.965,7.32-6.965
	c0.5,1.643,2.43,2.143,2.43,2.143c-1.322-2.07,0.106-4.106,0.106-4.106c1.394-0.964,2.536-4.786,2.536-4.786
	c3.035,8.893,8.857,13.536,8.857,13.536c1.393,6.464,5.214,10.536,5.214,10.536l3.25,5.5l-1.607,5.643c-1.25,1.357-0.964,3-0.964,3
	c-2.929-0.322-3.107,1.107-3.107,1.107c-1.535,0.785,0.679,2.035,0.679,2.035c3.571,0.857,4.356-0.965,4.356-0.965l1.894-3.606
	l0.643,0.75l-0.179,7.106c-0.393,2.25-1.535,2.25-1.535,2.25c-3.286,0.857-2.536,2.75-2.536,2.75h5.321
	c2.643-0.856,1.965-3.106,1.965-3.106c1.821-2.929,2.428-15.429,2.428-15.429c2.572-3.75,0.215-6.357,0.215-6.357
	c2.75-2.464,0.5-4.643,0.5-4.643l-2.465-4.429c-2.928-5.286,0.644-17.821,0.644-17.821c0.929,0.607,1.536,3.357,1.536,3.357
	c1.106-3.965-0.357-8.715-0.357-8.715c2.107,1.465,1.607,5.143,1.607,5.143c2.178-5.5-1.322-9.679-1.322-9.679
	c-0.178-2.571-1.678-5.143-1.678-5.143c0.535-3.429,3.606-1.607,3.606-1.607c0.071-1.5-1.393-3.106-1.393-3.106
	c2.214,0.5,2.821,2.393,2.821,2.393c1.821,3.536-0.607,5.143-0.607,5.143c5.893-1.25,4.465-6.25,4.465-6.25
	c0.571,0.786,0.928,1.965,0.928,1.965c0.715-1.536-0.106-3.679-0.106-3.679c0.893,0.607,1.036,1.143,1.036,1.143
	C103.096,41.689,101.453,40.476,101.453,40.476z M40.061,102.297c-0.179-4.178,0.464-11.893,0.464-11.893
	C42.774,104.047,40.061,102.297,40.061,102.297z"/>
</svg>
