<?xml version="1.0" encoding="utf-8"?>
<!-- Generator: Adobe Illustrator 24.2.1, SVG Export Plug-In . SVG Version: 6.00 Build 0)  -->
<svg version="1.1" id="Layer_1" xmlns="http://www.w3.org/2000/svg" xmlns:xlink="http://www.w3.org/1999/xlink" x="0px" y="0px"
	 viewBox="0 0 500 500" style="enable-background:new 0 0 500 500;" xml:space="preserve">
<g>
	<path d="M337.3,1c0,0,1.9,17.8-4.5,18c-58.3,2.2-143.7,8.3-213.9,5.1c-6-0.3-10.8,4.9-10.2,10.9c1.2,11.3,2.1,24.2,1.3,36.7
		c72.3,5.3,159.4-6.1,222,10.2c8.1,9.9,4.5,34.8-5.5,40.6c-66.4,2.5-129-4.3-187.6,0.2c-9.7,12.4,0,49.6,2.8,47.6
		c61.5,3.3,152.6-4.9,187.2,12.4l1.8,28.1c-33.2,5.5-79.3-3.1-97,14.1c29.8,85.1,102.9,162.4,155.3,236c-4.5-121.8,2.5-460,2.5-460
		H337.3z"/>
</g>
</svg>
