<svg version="1.1" id="Layer_1" xmlns="http://www.w3.org/2000/svg" xmlns:xlink="http://www.w3.org/1999/xlink" x="0px"
     y="0px"
     width="66.755px" height="58.65px" viewBox="0 0 66.755 58.65" enable-background="new 0 0 66.755 58.65"
     xml:space="preserve">
<path fill="#808080" d="M0,30.095c0.469-0.508,0.938-0.957,1.426-1.445c-0.02-0.059-0.059-0.117-0.059-0.176
	c0.059,0.01,0.117,0.029,0.195,0.029c0.059-0.059,0.137-0.127,0.195-0.195l0,0C5.429,14.898,19.238,2.549,31.689,0
	c-3.193,6.416-6.396,11.548-9.6,15.591c12.812-3.467,27.371,0.469,44.666,14.074c-13.662,12.217-30.35,17.549-44.49,14.98
	c2.441,3.857,4.814,8.477,7.139,14.004C18.847,55.769,7.792,45.583,3.144,34.109C2.011,32.869,0.957,31.55,0,30.095z"/>
</svg>
