<?xml version="1.0" encoding="utf-8"?>
<!-- Generator: Adobe Illustrator 25.0.0, SVG Export Plug-In . SVG Version: 6.00 Build 0)  -->
<svg version="1.2" baseProfile="tiny" id="Layer_1" xmlns="http://www.w3.org/2000/svg" xmlns:xlink="http://www.w3.org/1999/xlink"
	 x="0px" y="0px" width="526.352px" height="513.462px" viewBox="0 0 526.352 513.462" overflow="visible" xml:space="preserve">
<path fill="#AFD3C2" d="M463.334,92.447c-25.78-29.382-55.857-52.136-90.234-68.26C338.727,8.062,303.158,0,266.398,0
	c-28.886,0-57.529,5.08-85.934,15.229c-28.412,10.154-54.905,24.669-79.491,43.533c-32.944,25.562-58.007,55.482-75.193,89.762
	C8.592,182.804,0,220.006,0,260.136c0,30.578,5.312,60.019,15.935,88.325c10.617,28.311,25.837,53.572,45.655,75.782
	c25.061,28.426,54.895,50.404,89.512,65.929c34.61,15.526,70.895,23.29,108.855,23.29c38.429,0,75.245-8.007,110.459-24.004
	c35.207-16.004,65.708-38.578,91.487-67.721c21.001-23.409,36.998-49.329,47.979-77.755c10.976-28.421,16.47-57.924,16.47-88.503
	C526.352,194.562,505.346,140.222,463.334,92.447z M45.117,186.601c0.85-4.671,1.798-9.215,2.858-13.605
	c-5.854,5.997-13.915,7.203-26.092,1.114c7.437-7.543,19.211-9.472,26.694-3.497c1.338-5.302,2.819-10.399,4.427-15.297
	c-5.054,6.224-12.107,7.822-22.908,2.397c6.5-7.739,16.956-10.073,23.533-4.3c1.645-4.861,3.411-9.523,5.281-13.992
	c-5.829,4.457-12.409,4.361-20.771-2.814c7.326-5.326,16.897-5.156,21.478,1.156c1.97-4.595,4.047-8.98,6.209-13.166
	c-4.817,2.833-10.602,2.336-18.089-2.901c6.402-5.699,15.292-6.697,20.621-1.844c2.001-3.629,4.061-7.099,6.168-10.413
	c-3.878,1.985-8.676,1.536-14.932-2.217c5.35-5.481,13.234-6.903,18.253-2.84c2.779-4.08,5.618-7.9,8.481-11.484
	c-3.478,2.785-7.907,2.934-14.021-0.733c4.726-4.84,11.844-5.852,15.904-1.588c2.197-2.661,4.402-5.188,6.601-7.574
	c-2.817,1.247-6.414,1.026-11.136-1.097c4.102-5.334,10.995-7.182,15.53-3.506c3.047-3.081,6.057-5.9,8.991-8.482
	c-2.897,1.55-6.664,1.45-11.712-0.821c4.193-5.452,11.312-7.277,15.838-3.261c-0.313,0.499-0.646,0.955-0.99,1.388
	c3.247-2.724,6.37-5.142,9.311-7.278c-2.111-0.234-4.46-1.231-7.127-3.159c4.233-3.649,10-4.295,13.551-1.279
	c3.581-2.342,6.724-4.183,9.266-5.575c-1.597-0.495-3.321-1.386-5.207-2.749c4.456-3.844,10.617-4.367,14.098-0.784
	c0.174,0.105,0.337,0.244,0.461,0.467c0.028,0.051,0.045,0.099,0.064,0.147c0.047,0.059,0.099,0.109,0.145,0.17
	c-0.026,0.027-0.052,0.049-0.078,0.076c0.122,0.978-1.477,1.459-1.477,1.459c-0.04,0.019-0.259,0.12-0.615,0.292
	c-0.573,0.373-1.165,0.673-1.778,0.899c-0.828,0.433-1.847,0.983-3.05,1.669c2.641,4.145,0.844,9.586-4.155,13.074
	c-2.272-3.557-3.083-6.454-2.716-8.857c-2.931,1.922-6.277,4.276-9.9,7.081c4.718,3.339,4.394,9.768-0.211,14.664
	c-4.362-4.455-5.33-8.156-3.835-11.43c-3.69,3.042-7.598,6.521-11.616,10.482c4.922,1.87,6.864,7.692,4.81,13.889
	c-6.448-2.435-9.023-5.72-8.882-9.743c-3.302,3.47-6.647,7.268-9.977,11.396c7.597,1.31,11.572,9.82,9.622,18.422
	c-9.816-4.814-12.142-10.828-9.973-17.983c-3.646,4.548-7.267,9.5-10.787,14.883c7.329,0.972,12.106,8.769,11.425,17.437
	c-9.718-3.131-13.372-8.159-13.176-14.718c-3.151,4.999-6.201,10.363-9.102,16.088c7.487,0.85,13.248,8.292,13.857,17.352
	c-10.041-1.681-14.981-5.821-16.537-11.866c-2.345,4.996-4.564,10.263-6.63,15.799c7.591-1.787,15.601,3.69,18.917,12.406
	c-11.28,1.476-17.382-1.826-20.332-8.506c-1.538,4.376-2.981,8.912-4.306,13.624c8.774-1.145,17.702,5.343,21.078,14.702
	c-12.394,0.388-19.145-3.289-22.371-9.914c-1.497,5.798-2.811,11.858-3.933,18.161c9.834-2.247,20.583,4.29,25.223,14.606
	c-14.023,1.522-21.935-2.116-26.09-9.429c-0.605,3.857-1.135,7.808-1.584,11.852c9.685,1.947,19.251,10.327,22.231,18.729
	c-6.838-2.288-11.943-4.813-15.668-7.569c3.827,10.287,1.124,21.886-10.382,35.726c-9.597-11.339-13.031-25.219-9.4-36.137
	c-3.534,2.297-8.112,4.426-13.954,6.383c2.964-8.36,12.443-16.696,22.074-18.705c0.419-3.626,0.905-7.172,1.449-10.646
	c-5.212,5.819-13.375,7.832-26.265,4.528C23.922,187.715,35.657,182.775,45.117,186.601z M145.749,469.83
	c-0.019,0.048-0.036,0.095-0.063,0.145c-0.123,0.223-0.286,0.361-0.46,0.467c-3.481,3.584-9.644,3.06-14.1-0.783
	c1.885-1.361,3.608-2.253,5.204-2.748c-2.542-1.392-5.684-3.233-9.264-5.574c-3.552,3.014-9.317,2.37-13.55-1.282
	c2.666-1.927,5.014-2.924,7.124-3.158c-2.939-2.135-6.059-4.551-9.303-7.272c0.343,0.431,0.674,0.885,0.986,1.382
	c-4.525,4.017-11.645,2.194-15.838-3.261c5.044-2.268,8.81-2.37,11.706-0.823c-2.932-2.58-5.941-5.399-8.986-8.478
	c-4.535,3.675-11.427,1.827-15.529-3.507c4.72-2.122,8.317-2.343,11.133-1.098c-2.198-2.385-4.403-4.912-6.599-7.572
	c-4.06,4.263-11.178,3.251-15.903-1.589c6.112-3.666,10.54-3.519,14.017-0.737c-2.862-3.583-5.699-7.401-8.477-11.48
	c-5.019,4.062-12.903,2.64-18.253-2.841c6.256-3.751,11.054-4.201,14.932-2.216c-2.107-3.315-4.167-6.784-6.168-10.414
	c-5.329,4.853-14.22,3.855-20.621-1.844c7.488-5.237,13.272-5.734,18.089-2.901c-2.162-4.187-4.239-8.571-6.209-13.166
	c-4.581,6.311-14.153,6.481-21.478,1.156c8.362-7.175,14.942-7.27,20.771-2.814c-1.87-4.469-3.636-9.131-5.281-13.992
	c-6.577,5.773-17.034,3.439-23.533-4.297c10.801-5.427,17.854-3.83,22.908,2.394c-1.607-4.897-3.089-9.994-4.427-15.297
	c-7.483,5.974-19.257,4.045-26.694-3.497c12.177-6.088,20.237-4.882,26.092,1.115c-1.059-4.391-2.008-8.935-2.858-13.606
	c-9.46,3.826-21.195-1.113-27.319-10.759c12.89-3.302,21.054-1.29,26.265,4.528c-0.544-3.474-1.03-7.02-1.449-10.646
	c-9.631-2.008-19.11-10.346-22.074-18.705c5.842,1.957,10.42,4.085,13.954,6.382c-3.631-10.919-0.197-24.799,9.4-36.137
	c11.506,13.84,14.209,25.438,10.382,35.725c3.725-2.756,8.831-5.281,15.668-7.569c-2.98,8.402-12.547,16.782-22.231,18.729
	c0.45,4.045,0.979,7.996,1.585,11.854c4.156-7.313,12.068-10.952,26.09-9.432c-4.64,10.317-15.389,16.854-25.223,14.609
	c1.122,6.303,2.436,12.362,3.933,18.16c3.226-6.625,9.977-10.304,22.371-9.916c-3.375,9.36-12.304,15.847-21.078,14.702
	c1.325,4.713,2.768,9.248,4.307,13.625c2.95-6.68,9.051-9.983,20.332-8.504c-3.316,8.714-11.326,14.191-18.917,12.404
	c2.066,5.536,4.285,10.804,6.63,15.8c1.556-6.045,6.496-10.185,16.538-11.866c-0.609,9.06-6.37,16.502-13.858,17.352
	c2.901,5.726,5.951,11.089,9.102,16.089c-0.196-6.558,3.458-11.586,13.176-14.72c0.681,8.67-4.096,16.466-11.425,17.438
	c3.52,5.384,7.142,10.336,10.788,14.884c-2.169-7.156,0.157-13.169,9.973-17.983c1.95,8.602-2.025,17.112-9.623,18.421
	c3.33,4.128,6.675,7.926,9.977,11.396c-0.141-4.023,2.434-7.309,8.882-9.743c2.055,6.199,0.113,12.019-4.81,13.889
	c4.018,3.961,7.926,7.44,11.616,10.482c-1.494-3.275-0.527-6.976,3.835-11.431c4.605,4.897,4.929,11.325,0.212,14.665
	c3.623,2.804,6.969,5.158,9.9,7.081c-0.367-2.403,0.445-5.3,2.716-8.857c4.998,3.488,6.795,8.929,4.155,13.074
	c1.204,0.686,2.222,1.236,3.051,1.669c0.613,0.226,1.205,0.526,1.777,0.899c0.356,0.172,0.575,0.274,0.615,0.293
	c0,0,1.6,0.482,1.477,1.459c0.026,0.026,0.052,0.049,0.078,0.076C145.849,469.72,145.796,469.771,145.749,469.83z M328.881,480.679
	c-18.975,9.557-40.998,14.333-66.061,14.333c-24.832,0-46.729-4.832-65.705-14.512c-18.98-9.675-36.943-18.509-53.889-39.769
	C105.504,393.196,86.65,334.79,86.65,265.51c0-39.415,5.132-76.322,15.396-110.718c10.262-34.399,24.826-63.423,43.682-87.081
	c15.758-19.826,32.881-27.519,51.387-36.358c18.494-8.839,40.397-13.261,65.705-13.261c25.539,0,47.679,4.482,66.416,13.437
	c18.74,8.964,35.746,16.604,51.027,36.182c18.854,23.892,33.476,52.979,43.861,87.257c10.383,34.28,15.578,70.65,15.578,109.109
	c0,69.996-18.861,128.882-56.576,176.654C365.941,462.23,347.857,471.123,328.881,480.679z M480.369,330.243
	c-0.85,4.67-1.798,9.213-2.857,13.603c5.857-5.994,13.914-7.199,26.089-1.112c-7.436,7.542-19.206,9.471-26.693,3.499
	c-1.338,5.302-2.819,10.398-4.427,15.295c5.054-6.224,12.104-7.821,22.908-2.394c-6.502,7.736-16.956,10.07-23.533,4.297
	c-1.644,4.86-3.41,9.522-5.28,13.989c5.829-4.454,12.408-4.357,20.77,2.816c-7.325,5.325-16.895,5.156-21.479-1.154
	c-1.969,4.594-4.046,8.978-6.208,13.163c4.817-2.833,10.6-2.335,18.089,2.901c-6.401,5.699-15.294,6.697-20.621,1.844
	c-2.001,3.629-4.061,7.099-6.168,10.413c3.878-1.985,8.675-1.535,14.93,2.216c-5.35,5.481-13.231,6.904-18.25,2.841
	c-2.778,4.078-5.615,7.896-8.476,11.478c3.476-2.78,7.906-2.926,14.014,0.739c-4.724,4.84-11.841,5.852-15.902,1.589
	c-2.196,2.66-4.4,5.187-6.598,7.571c2.817-1.244,6.414-1.022,11.133,1.099c-4.102,5.333-10.995,7.181-15.53,3.508
	c-3.045,3.078-6.053,5.896-8.984,8.476c2.896-1.546,6.661-1.444,11.706,0.824c-4.195,5.455-11.315,7.277-15.841,3.261
	c0.311-0.495,0.642-0.949,0.984-1.378c-3.243,2.72-6.362,5.135-9.299,7.269c2.11,0.234,4.458,1.231,7.125,3.158
	c-4.233,3.651-9.999,4.296-13.55,1.281c-3.581,2.342-6.723,4.182-9.265,5.574c1.596,0.495,3.32,1.386,5.205,2.748
	c-4.457,3.844-10.621,4.368-14.101,0.782c-0.173-0.106-0.334-0.243-0.457-0.466c-0.027-0.049-0.043-0.096-0.062-0.143
	c-0.048-0.06-0.101-0.111-0.148-0.173c0.026-0.027,0.052-0.05,0.078-0.077c-0.123-0.977,1.476-1.459,1.476-1.459
	c0.04-0.019,0.258-0.12,0.613-0.291c0.573-0.374,1.166-0.674,1.78-0.9c0.828-0.433,1.847-0.983,3.05-1.669
	c-2.64-4.145-0.845-9.586,4.155-13.074c2.271,3.557,3.081,6.454,2.714,8.857c2.931-1.922,6.277-4.276,9.9-7.08
	c-4.718-3.34-4.392-9.768,0.214-14.665c4.363,4.455,5.329,8.156,3.833,11.431c3.69-3.042,7.598-6.521,11.616-10.483
	c-4.921-1.87-6.865-7.69-4.808-13.889c6.447,2.434,9.022,5.72,8.881,9.743c3.302-3.47,6.647-7.268,9.977-11.397
	c-7.596-1.31-11.571-9.819-9.623-18.421c9.815,4.813,12.144,10.826,9.976,17.98c3.645-4.547,7.266-9.499,10.785-14.881
	c-7.328-0.973-12.107-8.769-11.424-17.438c9.714,3.133,13.371,8.159,13.177,14.716c3.15-4.998,6.2-10.361,9.099-16.085
	c-7.488-0.85-13.247-8.292-13.859-17.352c10.042,1.682,14.983,5.82,16.54,11.864c2.345-4.995,4.563-10.262,6.629-15.797
	c-7.592,1.787-15.602-3.691-18.916-12.404c11.28-1.478,17.381,1.823,20.331,8.502c1.538-4.376,2.981-8.911,4.305-13.622
	c-8.776,1.144-17.701-5.344-21.075-14.703c12.389-0.388,19.141,3.289,22.369,9.913c1.497-5.797,2.81-11.855,3.932-18.156
	c-9.834,2.244-20.583-4.293-25.224-14.609c14.022-1.519,21.934,2.119,26.091,9.431c0.605-3.857,1.134-7.808,1.584-11.853
	c-9.684-1.948-19.25-10.328-22.229-18.729c6.837,2.288,11.943,4.813,15.667,7.568c-3.826-10.287-1.122-21.885,10.384-35.725
	c9.596,11.338,13.029,25.218,9.398,36.137c3.535-2.297,8.113-4.426,13.956-6.382c-2.966,8.359-12.442,16.695-22.074,18.704
	c-0.419,3.626-0.905,7.172-1.449,10.647c5.212-5.818,13.376-7.83,26.265-4.528C501.564,329.13,489.829,334.069,480.369,330.243z
	 M481.422,192.832c0.544,3.474,1.03,7.021,1.449,10.647c9.632,2.009,19.108,10.345,22.074,18.704
	c-5.842-1.957-10.421-4.085-13.956-6.382c3.631,10.919,0.198,24.798-9.398,36.137c-11.505-13.84-14.21-25.438-10.384-35.725
	c-3.725,2.756-8.83,5.28-15.667,7.569c2.98-8.402,12.545-16.781,22.229-18.729c-0.449-4.044-0.978-7.994-1.584-11.85
	c-4.157,7.311-12.069,10.949-26.091,9.427c4.641-10.315,15.39-16.852,25.224-14.606c-1.122-6.302-2.435-12.36-3.932-18.157
	c-3.228,6.624-9.98,10.299-22.369,9.911c3.374-9.359,12.299-15.846,21.075-14.702c-1.325-4.711-2.767-9.246-4.305-13.622
	c-2.95,6.678-9.051,9.979-20.331,8.503c3.314-8.715,11.323-14.193,18.915-12.406c-2.066-5.535-4.284-10.801-6.628-15.797
	c-1.557,6.044-6.498,10.182-16.54,11.863c0.612-9.059,6.37-16.501,13.858-17.352c-2.9-5.724-5.949-11.086-9.099-16.084
	c0.193,6.558-3.464,11.584-13.177,14.714c-0.683-8.668,4.096-16.464,11.423-17.437c-3.519-5.382-7.14-10.333-10.785-14.88
	c2.168,7.154-0.162,13.166-9.977,17.98c-1.947-8.601,2.028-17.11,9.623-18.421c-3.33-4.128-6.675-7.926-9.977-11.396
	c0.141,4.023-2.434,7.308-8.881,9.743c-2.057-6.197-0.113-12.019,4.808-13.889c-4.018-3.962-7.926-7.441-11.616-10.483
	c1.496,3.275,0.53,6.976-3.833,11.431c-4.606-4.897-4.932-11.326-0.214-14.665c-3.623-2.804-6.969-5.158-9.9-7.081
	c0.367,2.403-0.443,5.299-2.714,8.857c-5-3.488-6.795-8.929-4.155-13.074c-1.203-0.685-2.222-1.236-3.049-1.669
	c-0.614-0.227-1.208-0.527-1.781-0.901c-0.354-0.172-0.573-0.272-0.612-0.291c0,0-1.599-0.481-1.477-1.459
	c-0.026-0.027-0.052-0.05-0.078-0.076c0.046-0.062,0.099-0.113,0.147-0.172c0.019-0.048,0.036-0.095,0.063-0.145
	c0.123-0.223,0.285-0.36,0.459-0.466c3.481-3.584,9.643-3.061,14.1,0.783c-1.886,1.362-3.611,2.254-5.208,2.749
	c2.542,1.392,5.685,3.233,9.266,5.575c3.551-3.016,9.318-2.37,13.551,1.279c-2.668,1.928-5.017,2.925-7.128,3.159
	c2.94,2.135,6.061,4.552,9.307,7.275c-0.344-0.431-0.676-0.887-0.989-1.384c4.525-4.016,11.645-2.191,15.841,3.261
	c-5.049,2.27-8.815,2.371-11.712,0.822c2.933,2.581,5.942,5.4,8.989,8.48c4.536-3.674,11.429-1.826,15.531,3.507
	c-4.72,2.122-8.318,2.343-11.135,1.098c2.199,2.385,4.404,4.912,6.6,7.573c4.06-4.264,11.178-3.252,15.902,1.588
	c-6.111,3.667-10.541,3.519-14.018,0.735c2.863,3.583,5.701,7.402,8.48,11.482c5.019-4.063,12.9-2.641,18.25,2.84
	c-6.254,3.753-11.052,4.202-14.93,2.216c2.107,3.314,4.167,6.784,6.168,10.413c5.327-4.853,14.22-3.855,20.622,1.844
	c-7.489,5.237-13.273,5.734-18.089,2.901c2.162,4.186,4.239,8.57,6.208,13.164c4.585-6.309,14.154-6.479,21.479-1.154
	c-8.362,7.173-14.942,7.27-20.77,2.816c1.869,4.468,3.635,9.129,5.28,13.989c6.577-5.773,17.032-3.439,23.533,4.3
	c-10.804,5.425-17.854,3.827-22.908-2.397c1.607,4.897,3.089,9.994,4.427,15.295c7.486-5.972,19.256-4.043,26.692,3.499
	c-12.175,6.087-20.232,4.883-26.089-1.112c1.059,4.389,2.007,8.932,2.857,13.602c9.46-3.826,21.195,1.113,27.319,10.759
	C494.798,200.665,486.634,198.651,481.422,192.832z"/>
</svg>
