<svg version="1.1" id="Layer_1" xmlns="http://www.w3.org/2000/svg" xmlns:xlink="http://www.w3.org/1999/xlink" x="0px" y="0px"
     width="25.562px" height="24.387px" viewBox="0 0 25.562 24.387" enable-background="new 0 0 25.562 24.387" xml:space="preserve">
<path fill="#23A0D1" d="M0,10.75c4.708,0,9.417,0,14.125,0c0.625-1.974-0.266-4.366-1.75-5.875
	c4.634,3.396,9.407,5.873,13.188,7.562C21.194,14.508,16.997,16.448,13,20c1.523-2.514,1.543-3.99,1.375-6.125H0V10.75z"/>
    <g>
            <path fill="#D52027" d="M4.125,0.084c0.331,2.268-0.815,5.99-2.667,7.333C0.746,3.146,2.251,1.841,4.125,0.084z"/>
        <path fill="#D52027" d="M8.117,2.376c0.368,1.905-0.896,5.065-3.691,5.631C4.673,4.279,6.196,3.48,8.117,2.376z"/>
        <path fill="#D52027" d="M10.971,4.092C11.022,6.14,9.594,8.76,7.568,8.776C7.935,5.471,9.715,5.177,10.971,4.092z"/>
        <path fill="#D52027" d="M22.292,0"/>
        </g>
    <g>
            <path fill="#D52027" d="M4.215,24.303c0.331-2.268-0.815-5.99-2.667-7.332C0.836,21.241,2.341,22.547,4.215,24.303z"/>
        <path fill="#D52027" d="M8.208,22.012c0.368-1.906-0.896-5.066-3.691-5.631C4.763,20.108,6.286,20.907,8.208,22.012z"/>
        <path fill="#D52027" d="M11.061,20.295c0.052-2.047-1.376-4.668-3.402-4.684C8.025,18.917,9.806,19.211,11.061,20.295z"/>
        <path fill="#D52027" d="M22.383,24.387"/>
        </g>
    <path fill="#D52027" d="M25.562,12.438c-5.307-2.256-8.557-4.481-13.188-7.562c1.101,1.681,1.757,3.74,2.022,5.875H0v2.893h14.521
	C14.433,15.952,13.911,18.195,13,20C17.245,16.667,21.505,14.122,25.562,12.438z"/>
</svg>
