<?xml version="1.0" encoding="utf-8"?>
<!-- Generator: Adobe Illustrator 25.0.0, SVG Export Plug-In . SVG Version: 6.00 Build 0)  -->
<svg version="1.2" baseProfile="tiny" id="Layer_1" xmlns="http://www.w3.org/2000/svg" xmlns:xlink="http://www.w3.org/1999/xlink"
	 x="0px" y="0px" width="555.147px" height="648.768px" viewBox="0 0 555.147 648.768" overflow="visible" xml:space="preserve">
<path fill="#FFFFFF" d="M101.471,259.256c0,4.082-3.308,7.393-7.39,7.393c-4.082,0-7.39-3.311-7.39-7.393
	c0-4.079,3.308-7.39,7.39-7.39C98.163,251.866,101.471,255.177,101.471,259.256z"/>
<path fill="#FFFFFF" d="M497.842,259.256c0,4.082-3.311,7.393-7.389,7.393c-4.083,0-7.391-3.311-7.391-7.393
	c0-4.079,3.308-7.39,7.391-7.39C494.531,251.866,497.842,255.177,497.842,259.256z"/>
<path fill="#FFFFFF" d="M496.225,259.256c0,4.082-3.308,7.393-7.391,7.393c-4.082,0-7.389-3.311-7.389-7.393
	c0-4.079,3.307-7.39,7.389-7.39C492.917,251.866,496.225,255.177,496.225,259.256z"/>
<g>
	<path fill="#808080" d="M71.93,626.293c0-1.547,0.352-3.868,1.056-6.965c0.702-3.095,1.688-6.753,2.954-10.974l12.029-39.042
		c1.758-5.768,2.304-9.55,1.636-11.344c-0.67-1.794-3.008-2.69-7.018-2.69h-9.285l1.794-7.387l19.31-1.478l19.416-1.477
		l-20.893,68.06c-0.915,3.025-1.583,5.505-2.005,7.44c-0.423,1.935-0.634,3.571-0.634,4.906c0,3.94,1.072,7.035,3.219,9.286
		c2.145,2.252,5.117,3.376,8.916,3.376c10.621,0,20.893-10.094,30.812-30.284c5.135-10.481,7.703-16.706,7.703-18.677
		c1.267-3.656,2.357-7.122,3.271-10.393c0.913-3.271,1.828-6.77,2.743-10.499l0.738-3.06l5.487-20.154h17.728l-6.12,22.265
		c-3.73,13.717-6.42,25.131-8.072,34.24c-1.654,9.111-2.48,17.078-2.48,23.9c0,4.503,0.966,7.739,2.901,9.708
		c1.934,1.97,5.118,2.954,9.55,2.954c8.722,0,17.321-6.664,25.799-19.996c8.477-13.33,12.716-26.854,12.716-40.571
		c0.069-1.758,0-3.341-0.212-4.749c-0.353-2.321-1.002-4.237-1.951-5.751c-0.95-1.512-2.411-2.971-4.38-4.379l-2.427-1.794
		c-1.83-1.828-2.743-3.973-2.743-6.436c0-2.672,0.949-4.854,2.849-6.542c1.899-1.688,4.361-2.532,7.387-2.532
		c4.221,0,7.492,1.477,9.814,4.432s3.481,7.175,3.481,12.662c0,22.441-5.663,42.455-16.988,60.041
		c-11.327,17.587-24.27,26.38-38.831,26.38c-7.175,0-12.962-2.058-17.357-6.173c-4.398-4.115-6.596-9.55-6.596-16.303
		c0-3.377,0.175-7.034,0.528-10.975l-0.95,1.794c-12.171,21.104-26.063,31.656-41.68,31.656c-7.246,0-12.944-2.005-17.095-6.015
		C73.97,638.814,71.93,633.328,71.93,626.293z"/>
	<path fill="#808080" d="M244.348,637.952c-7.105-7.21-10.622-16.514-10.552-27.909v-0.423c-0.07-2.743,0.175-5.962,0.739-9.654
		c0.562-3.693,1.301-7.192,2.216-10.5c3.517-12.731,10.552-23.336,21.104-31.814c10.552-8.477,22.054-12.715,34.505-12.715
		c11.536,0,20.84,3.605,27.91,10.815c7.069,7.212,10.604,16.69,10.604,28.438c0,2.743-0.282,5.979-0.845,9.708
		c-0.564,3.73-1.302,7.246-2.216,10.552c-3.447,12.733-10.483,23.319-21.104,31.761c-10.482,8.373-21.948,12.558-34.399,12.558
		C260.772,648.768,251.452,645.164,244.348,637.952z M293.068,630.672c5.761-6.929,10.432-16.794,14.011-29.599
		c1.267-4.643,2.251-9.074,2.955-13.295c0.702-4.221,1.019-7.949,0.949-11.186c0-7.737-1.739-13.665-5.215-17.78
		c-3.476-4.115-8.441-6.173-14.897-6.173c-7.109,0-13.553,3.482-19.333,10.447c-5.78,6.964-10.465,16.883-14.054,29.756
		c-1.267,4.643-2.234,9.059-2.902,13.243c-0.669,4.186-1.002,7.898-1.002,11.132c0,7.668,1.744,13.56,5.234,17.675
		c3.49,4.115,8.484,6.173,14.984,6.173C280.884,641.065,287.308,637.602,293.068,630.672z"/>
	<path fill="#808080" d="M352.399,637.952c-7.105-7.21-10.622-16.514-10.552-27.909v-0.423c-0.07-2.743,0.175-5.962,0.739-9.654
		c0.562-3.693,1.301-7.192,2.216-10.5c3.517-12.731,10.552-23.336,21.103-31.814c10.552-8.477,22.054-12.715,34.505-12.715
		c11.536,0,20.84,3.605,27.91,10.815c7.069,7.212,10.604,16.69,10.604,28.438c0,2.743-0.282,5.979-0.845,9.708
		c-0.563,3.73-1.302,7.246-2.216,10.552c-3.447,12.733-10.482,23.319-21.104,31.761c-10.482,8.373-21.948,12.558-34.399,12.558
		C368.824,648.768,359.504,645.164,352.399,637.952z M401.12,630.672c5.761-6.929,10.432-16.794,14.011-29.599
		c1.267-4.643,2.251-9.074,2.955-13.295c0.702-4.221,1.019-7.949,0.949-11.186c0-7.737-1.739-13.665-5.215-17.78
		c-3.476-4.115-8.441-6.173-14.896-6.173c-7.109,0-13.553,3.482-19.333,10.447c-5.78,6.964-10.465,16.883-14.054,29.756
		c-1.267,4.643-2.234,9.059-2.902,13.243c-0.669,4.186-1.002,7.898-1.002,11.132c0,7.668,1.744,13.56,5.234,17.675
		c3.49,4.115,8.484,6.173,14.984,6.173C388.936,641.065,395.359,637.602,401.12,630.672z"/>
	<path fill="#808080" d="M455.598,612.997l30.284-98.66c2.25-7.315,2.796-12.046,1.636-14.192
		c-1.161-2.146-4.838-3.219-11.027-3.219h-8.02l2.427-7.809l20.999-1.371l20.998-1.372l-39.358,127.679
		c-2.814,9.285-4.115,15.582-3.904,18.888c0.211,3.308,2.039,4.959,5.487,4.959c2.743,0,6.312-2.216,10.71-6.648
		c4.395-4.432,9.338-10.763,14.825-18.993l6.436,3.692c-6.753,10.905-13.453,19.065-20.102,24.48
		c-6.647,5.417-13.384,8.125-20.207,8.125c-7.668,0-12.416-2.849-14.244-8.547C450.778,634.312,451.799,625.309,455.598,612.997z"/>
</g>
<g>
	<path fill="#AFD3C2" d="M28.795,260.136c0-40.13,8.592-77.332,25.779-111.612c17.186-34.28,42.249-64.2,75.193-89.762
		c24.586-18.864,51.079-33.379,79.491-43.533C237.663,5.08,266.307,0,295.192,0c36.761,0,72.329,8.062,106.702,24.187
		c34.377,16.125,64.454,38.878,90.234,68.26c42.012,47.775,63.018,102.116,63.018,163.033c0,30.579-5.494,60.082-16.47,88.503
		c-10.981,28.426-26.978,54.346-47.979,77.755c-25.779,29.143-56.28,51.717-91.487,67.721
		c-35.214,15.997-72.03,24.004-110.459,24.004c-37.96,0-74.244-7.764-108.855-23.29c-34.617-15.525-64.451-37.503-89.512-65.929
		c-19.818-22.21-35.038-47.472-45.655-75.782C34.106,320.154,28.795,290.714,28.795,260.136z M115.445,265.51
		c0,69.28,18.854,127.687,56.576,175.222c16.945,21.26,34.908,30.094,53.889,39.769c18.977,9.68,40.873,14.512,65.705,14.512
		c25.062,0,47.086-4.776,66.061-14.333c18.977-9.556,37.061-18.448,54.246-39.947c37.715-47.772,56.576-106.658,56.576-176.654
		c0-38.459-5.195-74.829-15.578-109.109c-10.386-34.278-25.008-63.365-43.861-87.257c-15.281-19.578-32.287-27.218-51.027-36.182
		c-18.737-8.955-40.877-13.437-66.416-13.437c-25.309,0-47.211,4.421-65.705,13.261c-18.506,8.839-35.629,16.532-51.387,36.358
		c-18.855,23.658-33.42,52.682-43.682,87.081C120.577,189.188,115.445,226.095,115.445,265.51z"/>
</g>
<g>
	<path fill="#EFC618" d="M107.138,519.838C87.7,497.06,55.782,489.006,0,503.978C26.174,528.495,74.172,537.205,107.138,519.838z"/>
	<path fill="#EFC618" d="M126.283,504.245C111.551,461.371,87.49,434.86,6.146,419.892
		C18.793,466.222,48.235,494.268,126.283,504.245z"/>
</g>
<g>
	<g>
		<g>
			<path fill="#FFFFFF" d="M172.068,470.373c-0.995-0.474-100.903-42.015-102.565-187.534l5.251-0.038
				c1.618,141.421,97.422,184.868,98.381,185.323c0,0,2.034,0.609,1.346,1.852C173.791,471.222,172.068,470.373,172.068,470.373z"/>
		</g>
		<path fill="#FFFFFF" d="M73.709,314.244c13.81-13.583,15.844-29.054-1.02-49.338C58.423,281.761,57.75,304.241,73.709,314.244z"/>
		<path fill="#FFFFFF" d="M76.264,329.087c-4.798-9.565-13.541-13.734-29.671-9.603C53.235,329.947,66.482,334.881,76.264,329.087z"
			/>
		<path fill="#FFFFFF" d="M73.125,313.663c-1.742-7.509-8.401-13.848-23.79-19.002C52.475,303.517,62.927,312.356,73.125,313.663z"
			/>
		<path fill="#FFFFFF" d="M74.949,312.061c1.742-7.506,8.398-13.848,23.79-18.999C95.6,301.915,85.147,310.758,74.949,312.061z"/>
		<path fill="#FFFFFF" d="M78.254,345.507c-5.961-7.406-14.341-9.391-27.576-2.773C58.409,350.575,70.843,352.375,78.254,345.507z"
			/>
		<path fill="#FFFFFF" d="M82.915,363.012c-5.121-7.434-12.406-9.716-24.024-3.878C65.551,367.06,76.377,369.341,82.915,363.012z"/>
		<path fill="#FFFFFF" d="M87.416,368.456c2.39-8.702,8.518-13.256,21.408-11.566C105.143,366.564,95.672,372.281,87.416,368.456z"
			/>
		<path fill="#FFFFFF" d="M95.975,390.536c-0.254-9.022,4.277-15.162,17.1-17.31C112.38,383.558,104.988,391.788,95.975,390.536z"/>
		<path fill="#FFFFFF" d="M108.615,409.489c-1.395-7.947,1.811-13.973,12.88-17.542
			C122.221,401.179,116.758,409.423,108.615,409.489z"/>
		<path fill="#FFFFFF" d="M120.999,424.753c-2.425-7.37-0.206-13.544,9.832-18.467C132.799,414.969,128.736,423.568,120.999,424.753
			z"/>
		<path fill="#FFFFFF" d="M132.391,440.864c-2.745-6.243-1.157-11.169,7.677-14.504
			C142.484,433.653,139.387,440.442,132.391,440.864z"/>
		<path fill="#FFFFFF" d="M149.91,454.591c-4.776-4.204-5.363-8.997,0.799-15.29C155.621,444.524,155.662,451.489,149.91,454.591z"
			/>
		<path fill="#FFFFFF" d="M165.897,467.316c-5.54-3.132-7.1-7.704-2.359-15.127C169.414,456.291,170.889,463.099,165.897,467.316z"
			/>
		<path fill="#FFFFFF" d="M88.897,378.403c-6.125-5.419-13.026-5.835-21.963,1.833C74.52,385.751,84.53,385.393,88.897,378.403z"/>
		<path fill="#FFFFFF" d="M98.568,395.484c-5.562-5.99-12.39-7.084-22.037-0.337C83.535,401.383,93.532,402.014,98.568,395.484z"/>
		<path fill="#FFFFFF" d="M107.893,411.289c-4.556-5.653-10.534-7.046-19.504-1.668C94.205,415.58,103.025,416.76,107.893,411.289z"
			/>
		<path fill="#FFFFFF" d="M117.218,426.057c-3.766-4.672-8.704-5.823-16.116-1.378C105.908,429.602,113.196,430.577,117.218,426.057
			z"/>
		<path fill="#FFFFFF" d="M128.312,438.201c-3.188-5.083-7.957-6.808-15.841-3.264C116.666,440.393,123.786,442.218,128.312,438.201
			z"/>
		<path fill="#FFFFFF" d="M141.117,451.007c-3.186-5.082-7.957-6.805-15.838-3.261C129.473,453.201,136.592,455.023,141.117,451.007
			z"/>
		<path fill="#FFFFFF" d="M157.079,460.054c-3.79-3.959-8.374-4.62-14.769,0.002C147.068,464.16,153.772,464.478,157.079,460.054z"
			/>
		<path fill="#FFFFFF" d="M174.689,469.659c-3.793-3.958-8.374-4.619-14.768,0C164.679,473.763,171.382,474.083,174.689,469.659z"/>
		<path fill="#FFFFFF" d="M76.182,327.943c3.388-10.148,11.447-15.523,28.001-13.729C99.101,325.513,86.691,332.284,76.182,327.943z
			"/>
		<path fill="#FFFFFF" d="M81.389,351.138c2.31-9.223,9.084-14.534,23.875-14.071C101.528,347.425,90.991,354.268,81.389,351.138z"
			/>
	</g>
	<g>
		<g>
			<path fill="#FFFFFF" d="M172.068,46.474c-0.995,0.474-100.903,42.012-102.565,187.531l5.251,0.042
				c1.618-141.424,97.422-184.872,98.381-185.326c0,0,2.034-0.609,1.346-1.853C173.791,45.623,172.068,46.474,172.068,46.474z"/>
		</g>
		<path fill="#FFFFFF" d="M73.709,202.601c13.81,13.582,15.844,29.054-1.02,49.338C58.423,235.083,57.75,212.602,73.709,202.601z"/>
		<path fill="#FFFFFF" d="M76.264,187.757c-4.798,9.564-13.541,13.738-29.671,9.603C53.235,186.897,66.482,181.963,76.264,187.757z"
			/>
		<path fill="#FFFFFF" d="M73.125,203.182c-1.742,7.508-8.401,13.848-23.79,19.002C52.475,213.327,62.927,204.488,73.125,203.182z"
			/>
		<path fill="#FFFFFF" d="M74.949,204.783c1.742,7.505,8.398,13.848,23.79,18.999C95.6,214.929,85.147,206.087,74.949,204.783z"/>
		<path fill="#FFFFFF" d="M78.254,171.338c-5.961,7.406-14.341,9.391-27.576,2.773C58.409,166.269,70.843,164.469,78.254,171.338z"
			/>
		<path fill="#FFFFFF" d="M82.915,153.833c-5.121,7.434-12.406,9.716-24.024,3.881C65.551,149.784,76.377,147.504,82.915,153.833z"
			/>
		<path fill="#FFFFFF" d="M87.416,148.389c2.39,8.702,8.518,13.255,21.408,11.568C105.143,150.28,95.672,144.563,87.416,148.389z"/>
		<path fill="#FFFFFF" d="M95.975,126.308c-0.254,9.022,4.277,15.163,17.1,17.31C112.38,133.287,104.988,125.057,95.975,126.308z"/>
		<path fill="#FFFFFF" d="M108.615,107.355c-1.395,7.949,1.811,13.975,12.88,17.541
			C122.221,115.666,116.758,107.422,108.615,107.355z"/>
		<path fill="#FFFFFF" d="M120.999,92.091c-2.425,7.37-0.206,13.544,9.832,18.467C132.799,101.876,128.736,93.276,120.999,92.091z"
			/>
		<path fill="#FFFFFF" d="M132.391,75.98c-2.745,6.243-1.157,11.169,7.677,14.504C142.484,83.194,139.387,76.402,132.391,75.98z"/>
		<path fill="#FFFFFF" d="M149.91,62.254c-4.776,4.204-5.363,8.997,0.799,15.29C155.621,72.32,155.662,65.355,149.91,62.254z"/>
		<path fill="#FFFFFF" d="M165.897,49.528c-5.54,3.134-7.1,7.704-2.359,15.126C169.414,60.554,170.889,53.745,165.897,49.528z"/>
		<path fill="#FFFFFF" d="M88.897,138.441c-6.125,5.419-13.026,5.835-21.963-1.833C74.52,131.093,84.53,131.451,88.897,138.441z"/>
		<path fill="#FFFFFF" d="M98.568,121.36c-5.562,5.989-12.39,7.084-22.037,0.337C83.535,115.462,93.532,114.83,98.568,121.36z"/>
		<path fill="#FFFFFF" d="M107.893,105.556c-4.556,5.653-10.534,7.048-19.504,1.667C94.205,101.264,103.025,100.084,107.893,105.556
			z"/>
		<path fill="#FFFFFF" d="M117.218,90.787c-3.766,4.672-8.704,5.824-16.116,1.378C105.908,87.243,113.196,86.267,117.218,90.787z"/>
		<path fill="#FFFFFF" d="M128.312,78.643c-3.188,5.083-7.957,6.808-15.841,3.264C116.666,76.452,123.786,74.627,128.312,78.643z"/>
		<path fill="#FFFFFF" d="M141.117,65.837c-3.186,5.082-7.957,6.805-15.838,3.261C129.473,63.646,136.592,61.821,141.117,65.837z"/>
		<path fill="#FFFFFF" d="M157.079,56.791c-3.79,3.958-8.374,4.62-14.769-0.003C147.068,52.687,153.772,52.367,157.079,56.791z"/>
		<path fill="#FFFFFF" d="M174.689,47.186c-3.793,3.958-8.374,4.619-14.768,0C164.679,43.081,171.382,42.762,174.689,47.186z"/>
		<path fill="#FFFFFF" d="M76.182,188.904c3.388,10.149,11.447,15.523,28.001,13.726C99.101,191.332,86.691,184.56,76.182,188.904z"
			/>
		<path fill="#FFFFFF" d="M81.389,165.707c2.31,9.225,9.084,14.534,23.875,14.071C101.528,169.419,90.991,162.576,81.389,165.707z"
			/>
	</g>
	<g>
		<g>
			<path fill="#FFFFFF" d="M411.005,470.373c0.997-0.474,100.905-42.015,102.567-187.534l-5.254-0.038
				c-1.615,141.421-97.422,184.868-98.378,185.323c0,0-2.034,0.609-1.345,1.852C409.285,471.222,411.005,470.373,411.005,470.373z"
				/>
		</g>
		<path fill="#FFFFFF" d="M509.366,314.244c-13.811-13.583-15.843-29.054,1.021-49.338
			C524.65,281.761,525.322,304.241,509.366,314.244z"/>
		<path fill="#FFFFFF" d="M506.812,329.087c4.798-9.565,13.542-13.734,29.671-9.603C529.84,329.947,516.594,334.881,506.812,329.087
			z"/>
		<path fill="#FFFFFF" d="M509.948,313.663c1.741-7.509,8.401-13.848,23.792-19.002
			C530.598,303.517,520.148,312.356,509.948,313.663z"/>
		<path fill="#FFFFFF" d="M508.126,312.061c-1.742-7.506-8.399-13.848-23.79-18.999
			C487.476,301.915,497.928,310.758,508.126,312.061z"/>
		<path fill="#FFFFFF" d="M504.818,345.507c5.965-7.406,14.341-9.391,27.577-2.773C524.664,350.575,512.232,352.375,504.818,345.507
			z"/>
		<path fill="#FFFFFF" d="M500.16,363.012c5.121-7.434,12.403-9.716,24.024-3.878C517.522,367.06,506.698,369.341,500.16,363.012z"
			/>
		<path fill="#FFFFFF" d="M495.659,368.456c-2.39-8.702-8.517-13.256-21.408-11.566
			C477.931,366.564,487.401,372.281,495.659,368.456z"/>
		<path fill="#FFFFFF" d="M487.101,390.536c0.254-9.022-4.277-15.162-17.103-17.31C470.695,383.558,478.085,391.788,487.101,390.536
			z"/>
		<path fill="#FFFFFF" d="M474.461,409.489c1.395-7.947-1.814-13.973-12.881-17.542
			C460.853,401.179,466.318,409.423,474.461,409.489z"/>
		<path fill="#FFFFFF" d="M462.076,424.753c2.426-7.37,0.204-13.544-9.834-18.467C450.276,414.969,454.34,423.568,462.076,424.753z"
			/>
		<path fill="#FFFFFF" d="M450.682,440.864c2.748-6.243,1.158-11.169-7.674-14.504C440.588,433.653,443.689,440.442,450.682,440.864
			z"/>
		<path fill="#FFFFFF" d="M433.162,454.591c4.777-4.204,5.367-8.997-0.796-15.29C427.454,444.524,427.41,451.489,433.162,454.591z"
			/>
		<path fill="#FFFFFF" d="M417.179,467.316c5.537-3.132,7.098-7.704,2.359-15.127C413.659,456.291,412.188,463.099,417.179,467.316z
			"/>
		<path fill="#FFFFFF" d="M494.176,378.403c6.125-5.419,13.027-5.835,21.966,1.833C508.556,385.751,498.545,385.393,494.176,378.403
			z"/>
		<path fill="#FFFFFF" d="M484.507,395.484c5.562-5.99,12.388-7.084,22.037-0.337C499.54,401.383,489.54,402.014,484.507,395.484z"
			/>
		<path fill="#FFFFFF" d="M475.183,411.289c4.556-5.653,10.534-7.046,19.501-1.668C488.867,415.58,480.051,416.76,475.183,411.289z"
			/>
		<path fill="#FFFFFF" d="M465.857,426.057c3.763-4.672,8.705-5.823,16.114-1.378C477.167,429.602,469.879,430.577,465.857,426.057z
			"/>
		<path fill="#FFFFFF" d="M454.761,438.201c3.19-5.083,7.96-6.808,15.844-3.264C466.409,440.393,459.287,442.218,454.761,438.201z"
			/>
		<path fill="#FFFFFF" d="M441.955,451.007c3.189-5.082,7.957-6.805,15.841-3.261C453.601,453.201,446.48,455.023,441.955,451.007z"
			/>
		<path fill="#FFFFFF" d="M425.996,460.054c3.79-3.959,8.371-4.62,14.768,0.002C436.007,464.16,429.304,464.478,425.996,460.054z"/>
		<path fill="#FFFFFF" d="M408.386,469.659c3.79-3.958,8.374-4.619,14.769,0C418.397,473.763,411.693,474.083,408.386,469.659z"/>
		<path fill="#FFFFFF" d="M506.894,327.943c-3.39-10.148-11.449-15.523-28.004-13.729
			C483.973,325.513,496.384,332.284,506.894,327.943z"/>
		<path fill="#FFFFFF" d="M501.688,351.138c-2.311-9.223-9.088-14.534-23.875-14.071
			C481.547,347.425,492.082,354.268,501.688,351.138z"/>
	</g>
	<g>
		<g>
			<path fill="#FFFFFF" d="M411.005,46.474c0.997,0.474,100.905,42.012,102.567,187.531l-5.254,0.042
				C506.703,92.623,410.897,49.175,409.94,48.721c0,0-2.034-0.609-1.345-1.853C409.285,45.623,411.005,46.474,411.005,46.474z"/>
		</g>
		<path fill="#FFFFFF" d="M509.366,202.601c-13.811,13.582-15.843,29.054,1.021,49.338
			C524.65,235.083,525.322,212.602,509.366,202.601z"/>
		<path fill="#FFFFFF" d="M506.812,187.757c4.798,9.564,13.542,13.738,29.671,9.603C529.84,186.897,516.594,181.963,506.812,187.757
			z"/>
		<path fill="#FFFFFF" d="M509.948,203.182c1.741,7.508,8.401,13.848,23.792,19.002
			C530.598,213.327,520.148,204.488,509.948,203.182z"/>
		<path fill="#FFFFFF" d="M508.126,204.783c-1.742,7.505-8.399,13.848-23.79,18.999
			C487.476,214.929,497.928,206.087,508.126,204.783z"/>
		<path fill="#FFFFFF" d="M504.818,171.338c5.965,7.406,14.341,9.391,27.577,2.773C524.664,166.269,512.232,164.469,504.818,171.338
			z"/>
		<path fill="#FFFFFF" d="M500.16,153.833c5.121,7.434,12.403,9.716,24.024,3.881C517.522,149.784,506.698,147.504,500.16,153.833z"
			/>
		<path fill="#FFFFFF" d="M495.659,148.389c-2.39,8.702-8.517,13.255-21.408,11.568C477.931,150.28,487.401,144.563,495.659,148.389
			z"/>
		<path fill="#FFFFFF" d="M487.101,126.308c0.254,9.022-4.277,15.163-17.103,17.31C470.695,133.287,478.085,125.057,487.101,126.308
			z"/>
		<path fill="#FFFFFF" d="M474.461,107.355c1.395,7.949-1.814,13.975-12.881,17.541
			C460.853,115.666,466.318,107.422,474.461,107.355z"/>
		<path fill="#FFFFFF" d="M462.076,92.091c2.426,7.37,0.204,13.544-9.834,18.467C450.276,101.876,454.34,93.276,462.076,92.091z"/>
		<path fill="#FFFFFF" d="M450.682,75.98c2.748,6.243,1.158,11.169-7.674,14.504C440.588,83.194,443.689,76.402,450.682,75.98z"/>
		<path fill="#FFFFFF" d="M433.162,62.254c4.777,4.204,5.367,8.997-0.796,15.29C427.454,72.32,427.41,65.355,433.162,62.254z"/>
		<path fill="#FFFFFF" d="M417.179,49.528c5.537,3.134,7.098,7.704,2.359,15.126C413.659,60.554,412.188,53.745,417.179,49.528z"/>
		<path fill="#FFFFFF" d="M494.176,138.441c6.125,5.419,13.027,5.835,21.966-1.833C508.556,131.093,498.545,131.451,494.176,138.441
			z"/>
		<path fill="#FFFFFF" d="M484.507,121.36c5.562,5.989,12.388,7.084,22.037,0.337C499.54,115.462,489.54,114.83,484.507,121.36z"/>
		<path fill="#FFFFFF" d="M475.183,105.556c4.556,5.653,10.534,7.048,19.501,1.667C488.867,101.264,480.051,100.084,475.183,105.556
			z"/>
		<path fill="#FFFFFF" d="M465.857,90.787c3.763,4.672,8.705,5.824,16.114,1.378C477.167,87.243,469.879,86.267,465.857,90.787z"/>
		<path fill="#FFFFFF" d="M454.761,78.643c3.19,5.083,7.96,6.808,15.844,3.264C466.409,76.452,459.287,74.627,454.761,78.643z"/>
		<path fill="#FFFFFF" d="M441.955,65.837c3.189,5.082,7.957,6.805,15.841,3.261C453.601,63.646,446.48,61.821,441.955,65.837z"/>
		<path fill="#FFFFFF" d="M425.996,56.791c3.79,3.958,8.371,4.62,14.768-0.003C436.007,52.687,429.304,52.367,425.996,56.791z"/>
		<path fill="#FFFFFF" d="M408.386,47.186c3.79,3.958,8.374,4.619,14.769,0C418.397,43.081,411.693,42.762,408.386,47.186z"/>
		<path fill="#FFFFFF" d="M506.894,188.904c-3.39,10.149-11.449,15.523-28.004,13.726
			C483.973,191.332,496.384,184.56,506.894,188.904z"/>
		<path fill="#FFFFFF" d="M501.688,165.707c-2.311,9.225-9.088,14.534-23.875,14.071
			C481.547,169.419,492.082,162.576,501.688,165.707z"/>
	</g>
</g>
</svg>
