<?xml version="1.0" encoding="utf-8"?>
<!-- Generator: Adobe Illustrator 25.0.0, SVG Export Plug-In . SVG Version: 6.00 Build 0)  -->
<svg version="1.2" baseProfile="tiny" id="Layer_1" xmlns="http://www.w3.org/2000/svg" xmlns:xlink="http://www.w3.org/1999/xlink"
	 x="0px" y="0px" width="229.608px" height="66.99px" viewBox="0 0 229.608 66.99" overflow="visible" xml:space="preserve">
<g>
	<g>
		<path fill="#999999" d="M228.234,54.609c-0.864-0.684-82.207-72.033-213.545-9.35l2.282,4.73
			c127.64-60.915,208.884,5.91,209.715,6.57c0,0,1.444,1.557,2.255,0.391C229.755,55.781,228.234,54.609,228.234,54.609z"/>
	</g>
	<path fill="#999999" d="M44.731,35.184C38.63,53.568,25.642,62.216,0,56.027C8.835,35.789,28.715,25.272,44.731,35.184z"/>
	<path fill="#999999" d="M59.179,30.931c-10.7-0.088-18.298-6.096-21.703-22.395C49.795,9.883,60.065,19.597,59.179,30.931z"/>
	<path fill="#999999" d="M43.952,34.916c-7.508,1.748-16.133-1.433-27.546-12.972C25.738,20.856,38.281,26.339,43.952,34.916z"/>
	<path fill="#999999" d="M43.319,37.259c-5.968,4.874-8.725,13.644-6.56,29.73C43.319,60.268,46.646,46.987,43.319,37.259z"/>
	<path fill="#999999" d="M74.793,25.476c-9.276-2.084-14.752-8.73-14.65-23.527C70.591,5.43,77.689,15.795,74.793,25.476z"/>
	<path fill="#999999" d="M92.56,21.94c-8.93-1.318-14.191-6.85-14.075-19.852C88.536,4.569,95.357,13.28,92.56,21.94z"/>
	<path fill="#999999" d="M99.431,23.578c-6.756,5.982-8.141,13.49-0.94,24.315C105.551,40.322,106.505,29.301,99.431,23.578z"/>
	<path fill="#999999" d="M123.022,21.522c-8.209,3.751-11.722,10.525-7.995,22.981C123.994,39.324,128.121,29.06,123.022,21.522z"/>
	<path fill="#999999" d="M145.607,24.509c-7.748,2.253-11.742,7.787-10.064,19.296C144.149,40.385,149.139,31.846,145.607,24.509z"
		/>
	<path fill="#999999" d="M164.768,28.892c-7.684,1.074-12.247,5.788-12.238,16.968C161.19,43.797,167.117,36.359,164.768,28.892z"/>
	<path fill="#999999" d="M184.252,32.011c-6.814,0.289-10.534,3.887-9.632,13.286C182.231,44.25,186.958,38.476,184.252,32.011z"/>
	<path fill="#999999" d="M204.298,41.682c-5.88-2.433-10.44-0.846-13.371,7.46C197.781,51.246,204.051,48.212,204.298,41.682z"/>
	<path fill="#999999" d="M222.769,50.417c-5.254-3.591-10.045-2.974-14.617,4.553C214.425,58.437,221.185,56.758,222.769,50.417z"/>
	<path fill="#999999" d="M109.012,20.52c-7.565-3.107-10.982-9.118-8.041-20.52C109.266,4.376,113.36,13.519,109.012,20.52z"/>
	<path fill="#999999" d="M128.607,21.668c-7.829-2.351-11.822-7.996-10.021-19.63C127.272,5.574,132.246,14.269,128.607,21.668z"/>
	<path fill="#999999" d="M146.904,23.067c-7.083-1.596-10.969-6.347-10.098-16.769C144.719,8.89,149.668,16.286,146.904,23.067z"/>
	<path fill="#999999" d="M164.271,24.924c-5.854-1.319-9.065-5.244-8.344-13.857C162.465,13.21,166.554,19.321,164.271,24.924z"/>
	<path fill="#999999" d="M180.063,29.525c-5.968-0.62-9.619-4.139-9.915-12.778C176.894,18.106,181.672,23.692,180.063,29.525z"/>
	<path fill="#999999" d="M197.203,35.37c-5.966-0.618-9.616-4.141-9.911-12.777C194.037,23.952,198.812,29.537,197.203,35.37z"/>
	<path fill="#999999" d="M212.362,45.707c-5.225-1.656-7.84-5.478-6.511-13.256C211.633,34.911,214.874,40.787,212.362,45.707z"/>
	<path fill="#999999" d="M228.749,57.276c-5.225-1.659-7.839-5.479-6.513-13.255C228.017,46.482,231.261,52.356,228.749,57.276z"/>
	<path fill="#999999" d="M58.116,31.361c-7.614,7.516-8.884,17.12,0.026,31.186C66.042,53.003,66.647,38.88,58.116,31.361z"/>
	<path fill="#999999" d="M81.23,25.806c-7.259,6.14-9.039,14.562-2.1,27.633C86.779,45.519,88.274,33.044,81.23,25.806z"/>
</g>
</svg>
