<svg version="1.1" id="Layer_1" xmlns="http://www.w3.org/2000/svg" xmlns:xlink="http://www.w3.org/1999/xlink" x="0px" y="0px"
     width="22.75px" height="13.542px" viewBox="0 0 22.75 13.542" enable-background="new 0 0 22.75 13.542" xml:space="preserve">
<g>
    <path fill="#EE2324" d="M22.75,6.774c-2.905-1.388-4.747-2.509-7.125-4.25c0.382,0.937,0.664,2.074,0.799,3.25H0v2h16.486
		c-0.058,1.271-0.314,2.488-0.861,3.438C17.705,9.634,19.512,7.881,22.75,6.774z M16.5,6.86c0.003,0.097-0.001,0.192,0,0.29V6.86z"
    />
    <g>
        <path fill="#D52027" d="M2.583,0.048c0.19,1.304-0.469,3.445-1.534,4.218C0.639,1.81,1.505,1.059,2.583,0.048z"/>
        <path fill="#D52027" d="M4.879,1.367C5.09,2.462,4.364,4.28,2.756,4.605C2.897,2.461,3.773,2.002,4.879,1.367z"/>
        <path fill="#D52027" d="M13.031,0"/>
    </g>
    <g>
        <path fill="#D52027" d="M2.583,13.493c0.19-1.304-0.469-3.445-1.534-4.217C0.64,11.732,1.505,12.483,2.583,13.493z"/>
        <path fill="#D52027" d="M4.879,12.174c0.211-1.096-0.515-2.912-2.123-3.238C2.898,11.081,3.774,11.54,4.879,12.174z"/>
        <path fill="#D52027" d="M13.031,13.542"/>
    </g>
</g>
</svg>
